<svg width="100" height="125" xmlns="http://www.w3.org/2000/svg" xmlns:svg="http://www.w3.org/2000/svg">
 <g>
  <title>Layer 1</title>
  <g id="svg_1">
   <path id="svg_2" fill="#000000" stroke-width="4" d="m50.00825,18.5c-21.41538,0 -39.30641,15.32619 -43.21875,35.625a2.00415,2.00415 0 1 0 3.9375,0.75c3.55504,-18.44503 19.77283,-32.375 39.28125,-32.375c22.11511,0 40,17.88492 40,40c0,22.1151 -17.88489,40 -40,40c-22.11509,0 -40,-17.8849 -40,-40a2.0002,2.0002 0 1 0 -4,0c0,24.2769 19.72315,44 44,44c24.27687,0 44,-19.7231 44,-44c0,-24.27684 -19.72313,-44 -44,-44zm-26.21875,26.96875a2.0002,2.0002 0 0 0 -1.78125,2.03125l0,30a2.0002,2.0002 0 1 0 4,0l0,-30a2.0002,2.0002 0 0 0 -2.21875,-2.03125zm25.96875,0.03125a2.0002,2.0002 0 0 0 -0.9375,0.375l-20,15a2.0002,2.0002 0 0 0 0,3.21875l20,15a2.0002,2.0002 0 0 0 3.1875,-1.59375l0,-30a2.0002,2.0002 0 0 0 -2.25,-2zm26,0a2.0002,2.0002 0 0 0 -0.9375,0.375l-20,15a2.0002,2.0002 0 0 0 0,3.21875l20,15a2.0002,2.0002 0 0 0 3.1875,-1.59375l0,-30a2.0002,2.0002 0 0 0 -2.25,-2zm-27.75,6l0,22l-14.65625,-11l14.65625,-11zm26,0l0,22l-14.65625,-11l14.65625,-11z"/>
  </g>
 </g>
</svg>
