<?xml version="1.0"?>
<svg width="100" height="100" xmlns="http://www.w3.org/2000/svg" xmlns:svg="http://www.w3.org/2000/svg">
 <g>
  <title>Layer 1</title>
  <g id="svg_1">
   <path id="svg_2" fill="#000000" stroke-width="3.999999" d="m34.820754,18.0022a2.0002,2.0002 0 0 0 -1.59375,1.09375l-4.46875,8.90625l-15.8125,0c-3.82361,0 -6.9375,3.171 -6.9375,7l0,32a2.0002,2.0002 0 1 0 4,0l0,-32c0,-1.711 1.28624,-3 2.9375,-3l17.0625,0a2.0002,2.0002 0 0 0 1.78125,-1.125l4.4375,-8.875l27.5625,0l4.4375,8.875a2.0002,2.0002 0 0 0 1.78125,1.125l17.0625,0c1.65126,0 2.9375,1.289 2.9375,3l0,40c0,1.711 -1.28624,3 -2.9375,3l-74.125,0c-1.65126,0 -2.9375,-1.289 -2.9375,-3a2.0002,2.0002 0 1 0 -4,0c0,3.829 3.11389,7 6.9375,7l74.125,0c3.82361,0 6.9375,-3.171 6.9375,-7l0,-40c0,-3.829 -3.11389,-7 -6.9375,-7l-15.8125,0l-4.46875,-8.90625a2.0002,2.0002 0 0 0 -1.78125,-1.09375l-30,0a2.0002,2.0002 0 0 0 -0.1875,0zm15.1875,18c-9.91745,0 -18,8.08272 -18,18c0,9.9174 8.08254,18 18,18c9.91746,0 18,-8.0826 18,-18c0,-9.91728 -8.08255,-18 -18,-18zm0,4c7.75567,0 14,6.24452 14,14c0,7.7556 -6.24435,14 -14,14c-7.75565,0 -14,-6.2444 -14,-14c0,-7.75548 6.24433,-14 14,-14z"/>
  </g>
 </g>
</svg>
